<svg width="27" height="9" viewBox="0 0 29 11" fill="none" xmlns="http://www.w3.org/2000/svg">
<path fill-rule="evenodd" clip-rule="evenodd" d="M27.7206 0.537361C26.7253 2.30214 24.6386 2.12436 22.312 2.12436H6.73836C4.34828 2.12436 2.32325 2.25029 1.30438 0.387365C0.89392 -0.36447 -0.35379 0.0429284 0.0966208 1.05216C1.27532 3.68173 3.81251 5.50021 6.74926 5.50021H22.3193C25.1761 5.50206 27.6552 3.78173 28.8757 1.26512C29.3915 0.205888 28.1637 -0.244102 27.7206 0.537361V0.537361Z" fill="#927953"/>
<path d="M21.7861 10.9556C22.7731 10.9556 23.5733 10.1704 23.5733 9.20191C23.5733 8.23338 22.7731 7.44824 21.7861 7.44824C20.7991 7.44824 19.999 8.23338 19.999 9.20191C19.999 10.1704 20.7991 10.9556 21.7861 10.9556Z" fill="#927953"/>
<path d="M7.23141 11C8.20437 11 8.9931 10.2049 8.9931 9.22413C8.9931 8.24333 8.20437 7.44824 7.23141 7.44824C6.25846 7.44824 5.46973 8.24333 5.46973 9.22413C5.46973 10.2049 6.25846 11 7.23141 11Z" fill="#927953"/>
</svg>
