<svg width="172" height="60" viewBox="0 0 172 60" fill="none" xmlns="http://www.w3.org/2000/svg">
<g clip-path="url(#clip0)">
<path d="M86.12 33.4299C86.12 36.0299 85.36 38.0299 83.83 39.4299C82.3 40.8299 80.11 41.5299 77.25 41.5299C75.25 41.5299 73.53 41.1599 72.06 40.4299C70.6 39.6999 69.67 38.4599 69.67 38.4599C69.24 37.8599 69.27 36.9599 69.77 36.4299L71.37 34.6299C71.87 34.0999 72.57 34.1599 72.93 34.7599C72.93 34.7599 73.26 35.3299 74.23 35.9299C75.16 36.5299 76.19 36.8299 77.29 36.8299C78.42 36.8299 79.25 36.5599 79.82 36.0599C80.39 35.5299 80.68 34.7899 80.68 33.7899C80.68 32.9199 80.28 32.1199 79.52 31.4199C78.76 30.7199 77.39 29.8199 75.43 28.7499C73.3 27.5499 71.77 26.3499 70.91 25.1199C70.05 23.8899 69.58 22.4499 69.58 20.7899C69.58 18.4599 70.34 16.5899 71.87 15.2199C73.4 13.8499 75.46 13.1499 78.09 13.1499C79.69 13.1499 81.08 13.4499 82.28 14.0499C83.48 14.6499 84.44 15.7199 84.44 15.7199C84.91 16.2499 84.91 17.1499 84.41 17.6899L82.95 19.2899C82.45 19.8199 81.72 19.7899 81.29 19.1899C81.29 19.1899 81.16 18.9899 80.39 18.5599C79.63 18.0899 78.83 17.8599 78.03 17.8599C77.1 17.8599 76.33 18.0899 75.8 18.5899C75.23 19.0899 74.97 19.6899 74.97 20.3899C74.97 21.8199 77.76 23.8599 77.76 23.8599C78.36 24.2899 79.02 24.7299 79.26 24.8599C79.49 24.9899 80.42 25.5599 81.06 25.9299C81.06 25.9299 83.82 27.7299 84.75 28.9599C85.62 30.1999 86.12 31.6999 86.12 33.4299Z" fill="black"/>
<path d="M94.4 39.6297C94.4 40.3597 93.8 40.9597 93.07 40.9597H90.41C89.68 40.9597 89.08 40.3597 89.08 39.6297V15.0297C89.08 14.2997 89.68 13.6997 90.41 13.6997H93.07C93.8 13.6997 94.4 14.2997 94.4 15.0297V39.6297Z" fill="black"/>
<path d="M121.8 39.6299C121.8 40.3599 121.2 40.9599 120.47 40.9599H117.91C117.18 40.9599 116.25 40.4599 115.85 39.8599L104.68 23.6599C104.28 23.0599 103.92 23.1599 103.92 23.8899V39.6199C103.92 40.3499 103.32 40.9499 102.59 40.9499H100.03C99.3 40.9499 98.7 40.3499 98.7 39.6199V15.0199C98.7 14.2899 99.3 13.6899 100.03 13.6899H102.59C103.32 13.6899 104.25 14.1899 104.65 14.7899L115.79 30.9199C116.19 31.5199 116.55 31.4199 116.55 30.6899V15.0299C116.55 14.2999 117.15 13.6999 117.88 13.6999H120.44C121.17 13.6999 121.77 14.2999 121.77 15.0299V39.6299H121.8Z" fill="black"/>
<path d="M145.74 29.0299C145.74 29.7599 145.67 30.9299 145.57 31.6599C145.57 31.6599 144.91 36.7299 143.18 38.6299C141.48 40.5599 139.02 41.4999 135.83 41.4999C132.67 41.4999 130.24 40.4999 128.51 38.5299C126.78 36.5599 126.08 31.6299 126.08 31.6299C125.98 30.8999 125.91 29.7299 125.91 28.9999V14.9999C125.91 14.2699 126.51 13.6699 127.24 13.6699H130.07C130.8 13.6699 131.4 14.2699 131.4 14.9999V29.9299C131.4 30.6599 131.47 31.8299 131.57 32.5599C131.57 32.5599 131.8 34.3299 132.53 35.2299C133.29 36.1299 134.39 36.5999 135.82 36.5999C137.32 36.5999 138.45 36.1699 139.18 35.2699C139.91 34.3999 140.11 32.5699 140.11 32.5699C140.21 31.8399 140.28 30.6699 140.28 29.9399V15.0399C140.28 14.3099 140.88 13.7099 141.61 13.7099H144.44C145.17 13.7099 145.77 14.3099 145.77 15.0399V29.0399H145.74V29.0299Z" fill="black"/>
<path d="M165.4 33.4299C165.4 36.0299 164.64 38.0299 163.11 39.4299C161.58 40.8299 159.38 41.5299 156.53 41.5299C154.53 41.5299 152.8 41.1599 151.34 40.4299C149.88 39.6999 148.95 38.4599 148.95 38.4599C148.52 37.8599 148.55 36.9599 149.05 36.4299L150.65 34.6299C151.15 34.0999 151.85 34.1599 152.21 34.7599C152.21 34.7599 152.54 35.3299 153.51 35.9299C154.44 36.5299 155.47 36.8299 156.57 36.8299C157.7 36.8299 158.53 36.5599 159.1 36.0599C159.67 35.5299 159.97 34.7899 159.97 33.7899C159.97 32.9199 159.57 32.1199 158.81 31.4199C158.05 30.7199 156.68 29.8199 154.72 28.7499C152.59 27.5499 151.06 26.3499 150.2 25.1199C149.34 23.8899 148.87 22.4499 148.87 20.7899C148.87 18.4599 149.63 16.5899 151.16 15.2199C152.69 13.8499 154.75 13.1499 157.38 13.1499C158.98 13.1499 160.37 13.4499 161.57 14.0499C162.77 14.6499 163.73 15.7199 163.73 15.7199C164.2 16.2499 164.2 17.1499 163.7 17.6899L162.24 19.2899C161.74 19.8199 161.01 19.7899 160.58 19.1899C160.58 19.1899 160.45 18.9899 159.68 18.5599C158.92 18.0899 158.12 17.8599 157.32 17.8599C156.39 17.8599 155.62 18.0899 155.09 18.5899C154.53 19.0899 154.26 19.6899 154.26 20.3899C154.26 21.8199 157.05 23.8599 157.05 23.8599C157.65 24.2899 158.31 24.7299 158.55 24.8599C158.78 24.9899 159.71 25.5599 160.35 25.9299C160.35 25.9299 163.11 27.7299 164.04 28.9599C164.93 30.1999 165.4 31.6999 165.4 33.4299Z" fill="#020203"/>
<path d="M73.76 51.8C73.76 52.37 73.55 52.81 73.14 53.12C72.73 53.44 72.17 53.59 71.47 53.59C70.71 53.59 70.12 53.49 69.71 53.3V52.58C69.97 52.69 70.26 52.78 70.57 52.84C70.88 52.9 71.19 52.94 71.49 52.94C71.99 52.94 72.36 52.85 72.61 52.66C72.86 52.47 72.99 52.21 72.99 51.87C72.99 51.65 72.94 51.47 72.85 51.33C72.76 51.19 72.61 51.05 72.4 50.93C72.19 50.81 71.87 50.67 71.45 50.52C70.85 50.31 70.42 50.05 70.17 49.76C69.92 49.47 69.79 49.08 69.79 48.61C69.79 48.11 69.98 47.72 70.35 47.43C70.72 47.14 71.21 46.99 71.83 46.99C72.47 46.99 73.06 47.11 73.59 47.34L73.36 47.99C72.83 47.77 72.31 47.66 71.81 47.66C71.41 47.66 71.11 47.75 70.88 47.91C70.66 48.08 70.55 48.32 70.55 48.62C70.55 48.84 70.59 49.03 70.67 49.17C70.75 49.31 70.89 49.44 71.08 49.56C71.28 49.68 71.58 49.81 71.98 49.95C72.65 50.19 73.12 50.45 73.37 50.72C73.63 51 73.76 51.36 73.76 51.8ZM81.51 53.51H80.63L78.29 50.39L77.62 50.99V53.51H76.87V47.09H77.62V50.28L80.53 47.09H81.41L78.83 49.88L81.51 53.51ZM88.24 53.51L87.44 51.47H84.86L84.07 53.51H83.31L85.85 47.06H86.48L89.01 53.51H88.24ZM87.2 50.79L86.45 48.8C86.35 48.55 86.25 48.24 86.15 47.87C86.09 48.15 85.99 48.46 85.87 48.8L85.11 50.79H87.2ZM93.67 53.51H92.92V47.75H90.89V47.09H95.71V47.75H93.68V53.51H93.67ZM102.06 53.51H98.48V47.09H102.06V47.75H99.23V49.82H101.89V50.48H99.23V52.84H102.06V53.51ZM105.29 47.08H107.11C107.96 47.08 108.58 47.21 108.96 47.46C109.34 47.71 109.53 48.12 109.53 48.67C109.53 49.05 109.42 49.37 109.21 49.61C109 49.86 108.69 50.02 108.28 50.09V50.13C109.25 50.3 109.74 50.81 109.74 51.67C109.74 52.24 109.55 52.69 109.16 53.01C108.77 53.33 108.23 53.49 107.53 53.49H105.29V47.08V47.08ZM106.03 49.83H107.26C107.79 49.83 108.17 49.75 108.4 49.58C108.63 49.41 108.75 49.13 108.75 48.74C108.75 48.38 108.62 48.12 108.36 47.96C108.1 47.8 107.69 47.72 107.13 47.72H106.03V49.83ZM106.03 50.47V52.87H107.37C107.89 52.87 108.28 52.77 108.54 52.57C108.8 52.37 108.93 52.05 108.93 51.63C108.93 51.23 108.8 50.94 108.53 50.75C108.26 50.56 107.86 50.47 107.31 50.47H106.03ZM118.5 50.29C118.5 51.32 118.24 52.13 117.72 52.72C117.2 53.31 116.48 53.6 115.55 53.6C114.6 53.6 113.87 53.31 113.36 52.73C112.85 52.15 112.59 51.33 112.59 50.28C112.59 49.23 112.85 48.42 113.36 47.85C113.87 47.27 114.61 46.98 115.56 46.98C116.48 46.98 117.2 47.27 117.72 47.86C118.24 48.45 118.5 49.25 118.5 50.29ZM113.38 50.29C113.38 51.16 113.56 51.82 113.93 52.27C114.3 52.72 114.84 52.94 115.55 52.94C116.26 52.94 116.8 52.72 117.16 52.27C117.52 51.82 117.7 51.16 117.7 50.29C117.7 49.43 117.52 48.77 117.16 48.33C116.8 47.88 116.26 47.66 115.56 47.66C114.85 47.66 114.31 47.89 113.93 48.34C113.56 48.77 113.38 49.43 113.38 50.29ZM125.77 53.51L124.97 51.47H122.39L121.6 53.51H120.84L123.38 47.06H124.01L126.54 53.51H125.77ZM124.74 50.79L124 48.8C123.9 48.55 123.8 48.24 123.7 47.87C123.63 48.15 123.54 48.46 123.42 48.8L122.66 50.79H124.74ZM129.98 50.84V53.51H129.23V47.09H130.99C131.78 47.09 132.36 47.24 132.73 47.54C133.11 47.84 133.3 48.3 133.3 48.9C133.3 49.75 132.87 50.32 132.01 50.62L133.75 53.51H132.87L131.32 50.84H129.98ZM129.98 50.19H131C131.53 50.19 131.91 50.09 132.16 49.88C132.41 49.67 132.53 49.35 132.53 48.94C132.53 48.52 132.4 48.21 132.15 48.02C131.9 47.83 131.5 47.74 130.95 47.74H129.98V50.19V50.19ZM141.72 50.23C141.72 51.29 141.43 52.1 140.85 52.66C140.28 53.22 139.45 53.5 138.37 53.5H136.59V47.08H138.56C139.56 47.08 140.34 47.36 140.89 47.91C141.45 48.47 141.72 49.24 141.72 50.23ZM140.93 50.26C140.93 49.42 140.72 48.79 140.3 48.37C139.88 47.95 139.26 47.73 138.43 47.73H137.34V52.86H138.25C139.14 52.86 139.81 52.64 140.26 52.21C140.71 51.77 140.93 51.12 140.93 50.26ZM148.59 51.8C148.59 52.37 148.38 52.81 147.97 53.12C147.56 53.44 147 53.59 146.3 53.59C145.54 53.59 144.95 53.49 144.54 53.3V52.58C144.8 52.69 145.09 52.78 145.4 52.84C145.71 52.9 146.02 52.94 146.32 52.94C146.82 52.94 147.19 52.85 147.44 52.66C147.69 52.47 147.82 52.21 147.82 51.87C147.82 51.65 147.77 51.47 147.68 51.33C147.59 51.19 147.44 51.05 147.23 50.93C147.02 50.81 146.7 50.67 146.28 50.52C145.68 50.31 145.25 50.05 145 49.76C144.75 49.47 144.62 49.08 144.62 48.61C144.62 48.11 144.81 47.72 145.18 47.43C145.55 47.14 146.04 46.99 146.66 46.99C147.3 46.99 147.89 47.11 148.42 47.34L148.19 47.99C147.66 47.77 147.14 47.66 146.64 47.66C146.24 47.66 145.94 47.75 145.71 47.91C145.49 48.08 145.38 48.32 145.38 48.62C145.38 48.84 145.42 49.03 145.5 49.17C145.58 49.31 145.72 49.44 145.91 49.56C146.11 49.68 146.4 49.81 146.81 49.95C147.48 50.19 147.95 50.45 148.2 50.72C148.46 51 148.59 51.36 148.59 51.8Z" fill="#927953"/>
</g>
<defs>
<clipPath id="clip0">
<rect width="172" height="60" fill="white"/>
</clipPath>
</defs>
</svg>
